<svg width="23" height="26" viewBox="0 0 23 26" fill="none" xmlns="http://www.w3.org/2000/svg">
<path d="M19.9443 4.28071H17.5486V2.29357C17.5486 1.68528 17.307 1.1019 16.8769 0.671772C16.4467 0.241644 15.8634 0 15.2551 0H3.12792C2.51963 0 1.93625 0.241644 1.50612 0.671772C1.07599 1.1019 0.834351 1.68528 0.834351 2.29357V19.4257C0.834351 20.034 1.07599 20.6174 1.50612 21.0475C1.93625 21.4776 2.51963 21.7193 3.12792 21.7193H5.83006V23.4C5.83006 23.7414 5.89732 24.0795 6.02798 24.395C6.15864 24.7104 6.35016 24.997 6.59159 25.2385C6.83302 25.4799 7.11964 25.6714 7.43509 25.8021C7.75053 25.9327 8.08863 26 8.43007 26H19.9443C20.2858 26 20.6239 25.9327 20.9393 25.8021C21.2548 25.6714 21.5414 25.4799 21.7828 25.2385C22.0243 24.997 22.2158 24.7104 22.3464 24.395C22.4771 24.0795 22.5444 23.7414 22.5444 23.4V6.88071C22.5444 6.19115 22.2704 5.52983 21.7828 5.04224C21.2952 4.55464 20.6339 4.28071 19.9443 4.28071ZM3.12792 19.9829C2.97929 19.9829 2.83661 19.9245 2.73064 19.8202C2.62468 19.716 2.56393 19.5743 2.56149 19.4257V2.29357C2.56393 2.14496 2.62468 2.00326 2.73064 1.89904C2.83661 1.79481 2.97929 1.73641 3.12792 1.73643H15.2551C15.4037 1.73641 15.5464 1.79481 15.6523 1.89904C15.7583 2.00326 15.8191 2.14496 15.8215 2.29357V4.28071H8.39292C7.70336 4.28071 7.04204 4.55464 6.55444 5.04224C6.06685 5.52983 5.79292 6.19115 5.79292 6.88071V19.9829H3.12792ZM20.7708 23.4C20.7683 23.6299 20.6753 23.8495 20.5119 24.0112C20.3484 24.1729 20.1278 24.2636 19.8979 24.2636H8.43007C8.20017 24.2636 7.97955 24.1729 7.81612 24.0112C7.65269 23.8495 7.55965 23.6299 7.55721 23.4V6.88071C7.55965 6.65083 7.65269 6.43119 7.81612 6.26951C7.97955 6.10782 8.20017 6.01713 8.43007 6.01714H19.9443C20.1742 6.01713 20.3949 6.10782 20.5583 6.26951C20.7217 6.43119 20.8148 6.65083 20.8172 6.88071L20.7708 23.4Z" fill="#8CD0EE"/>
<path d="M18.644 10.7063H9.72973C9.60818 10.6937 9.48533 10.7068 9.36914 10.7447C9.25296 10.7826 9.14603 10.8445 9.05527 10.9263C8.96452 11.0081 8.89196 11.1081 8.84229 11.2198C8.79263 11.3315 8.76697 11.4523 8.76697 11.5745C8.76697 11.6967 8.79263 11.8176 8.84229 11.9292C8.89196 12.0409 8.96452 12.1409 9.05527 12.2227C9.14603 12.3046 9.25296 12.3664 9.36914 12.4043C9.48533 12.4422 9.60818 12.4553 9.72973 12.4427H18.644C18.7656 12.4553 18.8884 12.4422 19.0046 12.4043C19.1208 12.3664 19.2277 12.3046 19.3185 12.2227C19.4092 12.1409 19.4818 12.0409 19.5315 11.9292C19.5811 11.8176 19.6068 11.6967 19.6068 11.5745C19.6068 11.4523 19.5811 11.3315 19.5315 11.2198C19.4818 11.1081 19.4092 11.0081 19.3185 10.9263C19.2277 10.8445 19.1208 10.7826 19.0046 10.7447C18.8884 10.7068 18.7656 10.6937 18.644 10.7063Z" fill="#8CD0EE"/>
<path d="M18.644 14.2722H9.72973C9.60818 14.2596 9.48533 14.2727 9.36914 14.3106C9.25296 14.3485 9.14603 14.4104 9.05527 14.4922C8.96452 14.5741 8.89196 14.6741 8.84229 14.7857C8.79263 14.8974 8.76697 15.0182 8.76697 15.1404C8.76697 15.2626 8.79263 15.3835 8.84229 15.4952C8.89196 15.6068 8.96452 15.7068 9.05527 15.7886C9.14603 15.8705 9.25296 15.9324 9.36914 15.9703C9.48533 16.0082 9.60818 16.0212 9.72973 16.0086H18.644C18.7656 16.0212 18.8884 16.0082 19.0046 15.9703C19.1208 15.9324 19.2277 15.8705 19.3185 15.7886C19.4092 15.7068 19.4818 15.6068 19.5315 15.4952C19.5811 15.3835 19.6068 15.2626 19.6068 15.1404C19.6068 15.0182 19.5811 14.8974 19.5315 14.7857C19.4818 14.6741 19.4092 14.5741 19.3185 14.4922C19.2277 14.4104 19.1208 14.3485 19.0046 14.3106C18.8884 14.2727 18.7656 14.2596 18.644 14.2722Z" fill="#8CD0EE"/>
<path d="M18.6444 17.8472H9.73015C9.50112 17.8472 9.28146 17.9382 9.11951 18.1001C8.95756 18.2621 8.86658 18.4817 8.86658 18.7107C8.86658 18.9398 8.95756 19.1594 9.11951 19.3214C9.28146 19.4833 9.50112 19.5743 9.73015 19.5743H18.6444C18.8735 19.5743 19.0931 19.4833 19.2551 19.3214C19.417 19.1594 19.508 18.9398 19.508 18.7107C19.508 18.4817 19.417 18.2621 19.2551 18.1001C19.0931 17.9382 18.8735 17.8472 18.6444 17.8472Z" fill="#8CD0EE"/>
</svg>
