<svg width="26" height="26" viewBox="0 0 26 26" fill="none" xmlns="http://www.w3.org/2000/svg">
<rect x="1.5" y="1.5" width="23" height="23" rx="6.5" fill="#F2994A" stroke="white" stroke-width="3"/>
<path d="M11.0734 9.17554H10.5094L8.32539 10.2915V11.2515L10.1494 10.3155V16.5555H11.0734V9.17554ZM16.4506 11.5395C16.4506 12.5355 15.7906 13.2195 14.8546 13.2195C13.9306 13.2195 13.2706 12.5235 13.2706 11.5395C13.2706 10.5675 13.9306 9.88354 14.8546 9.88354C15.8026 9.88354 16.4506 10.5795 16.4506 11.5395ZM12.5026 14.8395C12.7906 15.9675 13.4986 16.6635 14.7946 16.6635C16.3906 16.6635 17.4946 15.1275 17.4946 12.7395C17.4946 11.8755 17.3746 11.1435 17.0626 10.4835C16.6066 9.55954 15.8266 9.07954 14.8666 9.07954C13.3546 9.07954 12.3946 10.1955 12.3946 11.5515C12.3946 12.8835 13.3546 13.9995 14.7826 13.9995C15.6466 13.9995 16.4026 13.4835 16.6426 12.7395C16.6426 12.8115 16.6546 12.9915 16.6546 13.0635C16.6546 14.6475 15.8746 15.8835 14.7946 15.8835C14.0506 15.8835 13.6426 15.4635 13.4386 14.8395H12.5026Z" fill="white"/>
</svg>
