<svg width="4" height="16" viewBox="0 0 4 16" fill="none" xmlns="http://www.w3.org/2000/svg">
<path d="M1.7 3.4C2.63888 3.4 3.4 2.63888 3.4 1.7C3.4 0.761116 2.63888 0 1.7 0C0.761116 0 0 0.761116 0 1.7C0 2.63888 0.761116 3.4 1.7 3.4Z" fill="#22333B"/>
<path d="M1.7 9.30002C2.63888 9.30002 3.4 8.53891 3.4 7.60002C3.4 6.66114 2.63888 5.90002 1.7 5.90002C0.761116 5.90002 0 6.66114 0 7.60002C0 8.53891 0.761116 9.30002 1.7 9.30002Z" fill="#22333B"/>
<path d="M1.7 15.1C2.63888 15.1 3.4 14.3388 3.4 13.4C3.4 12.4611 2.63888 11.7 1.7 11.7C0.761116 11.7 0 12.4611 0 13.4C0 14.3388 0.761116 15.1 1.7 15.1Z" fill="#22333B"/>
</svg>
