<svg width="35" height="37" viewBox="0 0 35 37" fill="none" xmlns="http://www.w3.org/2000/svg">
<rect x="0.5" y="7.5" width="29" height="29" rx="2.5" stroke="#44B3F1"/>
<path fill-rule="evenodd" clip-rule="evenodd" d="M16.4659 26.9622C16.3198 26.9622 16.1777 26.9077 16.0693 26.8097L14.2147 27.7371C14.131 27.7805 14.0408 27.8011 13.9499 27.8011C13.7964 27.8011 13.6438 27.741 13.5307 27.6272L13.115 27.2115L12.3721 27.9545C12.2606 28.0651 12.1094 28.1277 11.9522 28.1277H8.59137C8.35174 28.1277 8.13585 27.9829 8.0442 27.7622C7.9524 27.5408 8.00221 27.2854 8.17147 27.1163L10.5923 24.6887L10.1755 24.2719C9.9944 24.0916 9.95009 23.8157 10.064 23.5872L10.9914 21.7315C10.8905 21.6185 10.8353 21.4695 10.8404 21.3169C10.8468 21.1524 10.9195 20.9982 11.0428 20.8899L18.8754 14.0363C19.7342 13.285 21.0374 13.3277 21.8454 14.1351L23.6674 15.9563C24.4748 16.7628 24.5175 18.0668 23.7663 18.9256L16.9128 26.7589C16.8043 26.8823 16.6501 26.9558 16.4865 26.9613C16.4785 26.9622 16.4723 26.9622 16.4659 26.9622ZM11.4315 25.5279L10.0203 26.9415H11.707L12.276 26.3725L11.4315 25.5279ZM13.5345 25.953L14.0669 26.4852L15.185 25.9264L11.8752 22.6166L11.3158 23.735L13.5345 25.953ZM16.4367 25.5015L12.3009 21.3659L19.6566 14.929C20.0473 14.5874 20.6403 14.6073 21.0065 14.9742L22.8276 16.7952C23.1945 17.1621 23.2143 17.7552 22.8728 18.1459L16.4367 25.5015ZM8.09307 30.5001H22.7223C23.0497 30.5001 23.3154 30.2344 23.3154 29.907C23.3154 29.5797 23.0497 29.314 22.7223 29.314H8.09307C7.7657 29.314 7.5 29.5797 7.5 29.907C7.5 30.2344 7.7657 30.5001 8.09307 30.5001Z" fill="#3377B2"/>
<circle cx="27.5" cy="7.5" r="7.5" fill="#EC8F39"/>
<path d="M25.6934 7.50391L26.1035 3.89062H30.0879V5.06738H27.2607L27.085 6.5957C27.4202 6.41667 27.7767 6.32715 28.1543 6.32715C28.8314 6.32715 29.362 6.53711 29.7461 6.95703C30.1302 7.37695 30.3223 7.96452 30.3223 8.71973C30.3223 9.17871 30.2246 9.59049 30.0293 9.95508C29.8372 10.3164 29.5605 10.598 29.1992 10.7998C28.8379 10.9984 28.4115 11.0977 27.9199 11.0977C27.4902 11.0977 27.0915 11.0114 26.7236 10.8389C26.3558 10.6631 26.0645 10.4173 25.8496 10.1016C25.638 9.78581 25.5257 9.42611 25.5127 9.02246H26.9092C26.9385 9.31868 27.041 9.5498 27.2168 9.71582C27.3958 9.87858 27.6286 9.95996 27.915 9.95996C28.234 9.95996 28.4798 9.84603 28.6523 9.61816C28.8249 9.38704 28.9111 9.06152 28.9111 8.6416C28.9111 8.23796 28.8118 7.92871 28.6133 7.71387C28.4147 7.49902 28.1331 7.3916 27.7686 7.3916C27.4333 7.3916 27.1615 7.47949 26.9531 7.65527L26.8164 7.78223L25.6934 7.50391Z" fill="white"/>
</svg>
