<svg width="22" height="21" viewBox="0 0 22 21" fill="none" xmlns="http://www.w3.org/2000/svg">
<path d="M15.9572 17.7046C15.9572 18.3072 15.455 18.7842 14.8524 18.7842H3.40337C2.80079 18.7842 2.29864 18.3072 2.29864 17.7046V6.23043C2.29864 5.62785 2.80079 5.1257 3.40337 5.1257H13.7477L15.0533 3.84521H2.82589C1.82159 3.84521 0.993042 4.64866 0.993042 5.65296V18.2821C0.993042 19.2864 1.82159 20.1149 2.82589 20.1149H15.455C16.4593 20.1149 17.2628 19.2864 17.2628 18.2821V6.05468L15.9823 7.36028V17.7046H15.9572Z" fill="#8CD0EE"/>
<path d="M20.7779 0.305034C20.3511 -0.121794 19.6481 -0.0966869 19.1961 0.35525L7.42066 12.1558L4.98523 16.1228L8.95223 13.6874L20.7277 1.91192C21.1796 1.43488 21.2047 0.731863 20.7779 0.305034ZM5.71335 15.5955L5.51249 15.3947L7.42066 12.2814L8.82669 13.6874L5.71335 15.5955ZM19.7234 2.79068L18.2922 1.35955L18.3927 1.25912L19.8238 2.69025L19.7234 2.79068ZM19.9493 2.56472L18.5182 1.13358L18.6186 1.03315L20.0498 2.46429L19.9493 2.56472Z" fill="#8CD0EE"/>
</svg>
