<svg width="19" height="24" viewBox="0 0 19 24" fill="none" xmlns="http://www.w3.org/2000/svg">
<path d="M18.2263 3.27837L16.6168 1.69608L15.0106 0.089929C14.9655 0.0484343 14.91 0.019882 14.85 0.00727934C14.7899 -0.00532336 14.7276 -0.00151017 14.6696 0.018317H1.56121C1.14699 0.018317 0.749736 0.182866 0.456837 0.475764C0.163939 0.768663 -0.000610352 1.16592 -0.000610352 1.58014V22.2385C-0.000611335 22.653 0.163829 23.0506 0.45663 23.3441C0.74943 23.6375 1.14668 23.8028 1.56121 23.8037H16.7634C17.1783 23.8028 17.5759 23.6376 17.8692 23.3443C18.1625 23.0509 18.3277 22.6533 18.3286 22.2385V3.52048C18.3284 3.47536 18.3193 3.43073 18.3018 3.38917C18.2842 3.34761 18.2586 3.30995 18.2263 3.27837ZM15.1095 3.17947V1.17093L17.1351 3.17947H15.1095ZM1.56121 0.700335H14.4275V3.52048C14.4275 3.61092 14.4634 3.69766 14.5274 3.76161C14.5913 3.82556 14.6781 3.86149 14.7685 3.86149H17.6466V22.2385C17.6466 22.3545 17.6238 22.4693 17.5794 22.5765C17.535 22.6836 17.4699 22.781 17.3879 22.863C17.3059 22.945 17.2086 23.0101 17.1014 23.0545C16.9942 23.0988 16.8794 23.1217 16.7634 23.1217H1.56121C1.44539 23.1217 1.3307 23.0988 1.22374 23.0544C1.11677 23.01 1.01963 22.9449 0.937888 22.8628C0.856146 22.7807 0.791411 22.6834 0.747398 22.5762C0.703385 22.4691 0.680959 22.3543 0.681408 22.2385V1.58014C0.680957 1.46448 0.703407 1.34987 0.747461 1.24292C0.791516 1.13597 0.856304 1.03881 0.938091 0.957018C1.01988 0.875231 1.11705 0.810443 1.22399 0.766388C1.33094 0.722334 1.44555 0.699884 1.56121 0.700335Z" fill="#2DA9E0"/>
<path d="M4.9271 8.38668H13.3978C13.5334 8.38668 13.6635 8.33278 13.7595 8.23686C13.8554 8.14093 13.9093 8.01082 13.9093 7.87516C13.9093 7.7395 13.8554 7.60939 13.7595 7.51347C13.6635 7.41754 13.5334 7.36365 13.3978 7.36365H4.9271C4.79144 7.36365 4.66133 7.41754 4.56541 7.51347C4.46948 7.60939 4.41559 7.7395 4.41559 7.87516C4.41559 8.01082 4.46948 8.14093 4.56541 8.23686C4.66133 8.33278 4.79144 8.38668 4.9271 8.38668Z" fill="#2DA9E0"/>
<path d="M4.9271 15.0363H13.3978C13.5334 15.0363 13.6635 14.9824 13.7595 14.8865C13.8554 14.7906 13.9093 14.6605 13.9093 14.5248C13.9093 14.3892 13.8554 14.2591 13.7595 14.1631C13.6635 14.0672 13.5334 14.0133 13.3978 14.0133H4.9271C4.79144 14.0133 4.66133 14.0672 4.56541 14.1631C4.46948 14.2591 4.41559 14.3892 4.41559 14.5248C4.41559 14.6605 4.46948 14.7906 4.56541 14.8865C4.66133 14.9824 4.79144 15.0363 4.9271 15.0363Z" fill="#2DA9E0"/>
<path d="M6.09342 10.774C5.95776 10.774 5.82766 10.8279 5.73173 10.9239C5.6358 11.0198 5.58191 11.1499 5.58191 11.2856C5.58191 11.4212 5.6358 11.5513 5.73173 11.6473C5.82766 11.7432 5.95776 11.7971 6.09342 11.7971H12.2316C12.3673 11.7971 12.4974 11.7432 12.5933 11.6473C12.6892 11.5513 12.7431 11.4212 12.7431 11.2856C12.7431 11.1499 12.6892 11.0198 12.5933 10.9239C12.4974 10.8279 12.3673 10.774 12.2316 10.774H6.09342Z" fill="#2DA9E0"/>
</svg>
