<svg width="17" height="22" viewBox="0 0 17 22" fill="none" xmlns="http://www.w3.org/2000/svg">
<path fill-rule="evenodd" clip-rule="evenodd" d="M15.0325 20.533L15.0325 7.08095C15.0332 6.86975 14.9943 6.1599 14.4443 5.58424C13.8474 4.96092 13.0503 4.92938 12.8963 4.92938H11.4744L11.415 3.50821C11.4091 3.31535 11.349 2.64289 10.8291 2.10537C10.2571 1.51284 9.51203 1.46664 9.29717 1.46664H1.46603V20.533H15.0325ZM15.504 4.57079C16.4808 5.59157 16.5006 6.82649 16.4991 7.08095L16.4992 21.9996H-0.000610352V0H9.26124C9.2715 0 9.28324 0 9.29717 0C9.6081 0 10.8841 0.0505991 11.8843 1.08605C12.8054 2.0401 12.8721 3.18775 12.8809 3.46274H12.8963C13.1669 3.46274 14.4795 3.50014 15.504 4.57079ZM7.1797 11.1752L11.199 7.15589L12.236 8.19281L7.1797 13.2498L4.46862 10.5387L5.50553 9.50105L7.1797 11.1752ZM7.1797 15.3607L11.199 11.3414L12.236 12.3783L7.1797 17.4353L4.46862 14.7242L5.50553 13.6866L7.1797 15.3607Z" fill="#8CD0EE"/>
</svg>
