<svg width="15" height="20" viewBox="0 0 15 20" fill="none" xmlns="http://www.w3.org/2000/svg">
<path d="M1.37443 14.5C0.974433 14.5 0.874433 14.1 1.17443 13.8C1.57443 13.4 1.87443 12.8 1.87443 12.2V9.29999C1.87443 6.59999 3.87443 4.19999 6.57443 3.89999C9.67443 3.59999 12.2744 5.99999 12.2744 9.09999V12.2C12.2744 12.8 12.5744 13.4 12.9744 13.8C13.2744 14.1 13.0744 14.5 12.7744 14.5H1.37443Z" stroke="#2DA9E0" stroke-width="1.5" stroke-miterlimit="10"/>
<path d="M6.97437 3.9V1" stroke="#2DA9E0" stroke-width="1.5" stroke-miterlimit="10"/>
<path d="M9.37439 16.6C9.37439 18 8.27439 19.1 6.87439 19.1C5.47439 19.1 4.37439 18 4.37439 16.6" stroke="#2DA9E0" stroke-width="1.5" stroke-miterlimit="10"/>
</svg>
