<svg width="208" height="148" viewBox="0 0 208 148" fill="none" xmlns="http://www.w3.org/2000/svg">
<path fill-rule="evenodd" clip-rule="evenodd" d="M176 28H178V119H176V28ZM188 31H190V119H188V31ZM193 37H191V119H193V37ZM196 68H194V119H196V68ZM187 33H185V119H187V33ZM182 39H184V119H182V39ZM181 36H179V119H181V36ZM175 36H173V119H175V36ZM170 42H172V119H170V42ZM169 51H167V119H169V51ZM164 48H166V119H164V48ZM163 54H161V119H163V54ZM158 52H160V119H158V52ZM157 57H155V119H157V57ZM152 63H154V119H152V63ZM151 61H149V119H151V61ZM146 70H148V119H146V70ZM145 64H143V119H145V64ZM140 68H142V119H140V68ZM139 75H137V119H139V75ZM134 77H136V119H134V77ZM133 83H131V119H133V83ZM128 82H130V119H128V82ZM127 81H125V119H127V81ZM122 83H124V119H122V83ZM121 88H119V119H121V88ZM116 89H118V119H116V89ZM115 88H113V119H115V88ZM110 87H112V119H110V87ZM109 87H107V119H109V87ZM104 90H106V119H104V90ZM103 94H101V119H103V94ZM98 93H100V119H98V93ZM97 92H95V119H97V92ZM92 94H94V119H92V94ZM91 94H89V119H91V94ZM86 89H88V119H86V89ZM85 79H83V119H85V79ZM80 87H82V119H80V87ZM79 84H77V119H79V84ZM74 92H76V119H74V92ZM73 93H71V119H73V93ZM68 95H70V119H68V95ZM67 100H65V119H67V100ZM62 100H64V119H62V100ZM61 97H59V119H61V97ZM56 105H58V119H56V105ZM55 111H53V119H55V111ZM50 111H52V119H50V111ZM49 111H47V119H49V111ZM44 108H46V119H44V108ZM43 108H41V119H43V108ZM38 108H40V119H38V108ZM37 108H35V119H37V108ZM32 109H34V119H32V109ZM31 109H29V119H31V109ZM26 109H28V119H26V109ZM25 109H23V119H25V109ZM20 109H22V119H20V109ZM19 109H17V119H19V109Z" fill="url(#paint0_linear)"/>
<path d="M17 121L188 121" stroke="#4C9E87" stroke-width="1.5"/>
<circle cx="12.5" cy="121.5" r="7.75" fill="white" stroke="#4C9E87" stroke-width="1.5"/>
<circle cx="196.5" cy="121.5" r="7.75" fill="white" stroke="#4C9E87" stroke-width="1.5"/>
<rect x="4.5" y="20.5" width="26" height="28" stroke="#AFB0B5"/>
<path d="M19.5 29H23V32.5" stroke="black"/>
<path d="M19.5 32.5L23 29" stroke="black"/>
<path d="M16.5 39.5L13 39.5L13 36" stroke="black"/>
<path d="M16.5 36L13 39.5" stroke="black"/>
<path d="M3.048 135.62H2.484L0.3 136.736V137.696L2.124 136.76V143H3.048V135.62ZM8.42522 137.984C8.42522 138.98 7.76522 139.664 6.82922 139.664C5.90522 139.664 5.24522 138.968 5.24522 137.984C5.24522 137.012 5.90522 136.328 6.82922 136.328C7.77722 136.328 8.42522 137.024 8.42522 137.984ZM4.47722 141.284C4.76522 142.412 5.47322 143.108 6.76922 143.108C8.36522 143.108 9.46922 141.572 9.46922 139.184C9.46922 138.32 9.34922 137.588 9.03722 136.928C8.58122 136.004 7.80122 135.524 6.84122 135.524C5.32922 135.524 4.36922 136.64 4.36922 137.996C4.36922 139.328 5.32922 140.444 6.75722 140.444C7.62122 140.444 8.37722 139.928 8.61722 139.184C8.61722 139.256 8.62922 139.436 8.62922 139.508C8.62922 141.092 7.84922 142.328 6.76922 142.328C6.02522 142.328 5.61722 141.908 5.41322 141.284H4.47722ZM14.0287 135.632H13.0687L10.2367 140.66V141.332H13.6327V143H14.5087V141.332H15.8047V140.54H14.5087V138.764H13.6327V140.54H11.2807L14.0287 135.632ZM19.0042 139.04C19.9042 139.04 20.5162 139.748 20.5162 140.672C20.5162 141.596 19.9042 142.292 19.0162 142.292C18.0922 142.292 17.5642 141.764 17.4082 140.9H16.4842C16.6522 142.268 17.6122 143.108 19.0162 143.108C20.4082 143.108 21.4042 142.064 21.4042 140.672C21.4042 139.256 20.4442 138.224 19.0882 138.224C18.4882 138.224 17.9962 138.464 17.7442 138.692V136.472H20.9842V135.632H16.9522V139.676H17.6962C17.9722 139.34 18.4162 139.04 19.0042 139.04Z" fill="black"/>
<path d="M188.092 137.612C188.092 138.308 187.492 138.92 186.724 139.76L184.348 142.376V143H189.16V142.16H185.644L187.516 140.108C188.26 139.268 189.004 138.536 189.004 137.6C189.004 136.34 188.164 135.524 186.76 135.524C185.404 135.524 184.492 136.472 184.348 137.84H185.32C185.392 136.988 185.872 136.364 186.76 136.364C187.576 136.364 188.092 136.856 188.092 137.612ZM192.712 143.108C194.356 143.108 195.46 141.56 195.46 139.316C195.46 137.072 194.356 135.524 192.712 135.524C191.068 135.524 189.964 137.072 189.964 139.316C189.964 141.56 191.068 143.108 192.712 143.108ZM192.712 136.376C193.9 136.376 194.536 137.6 194.536 139.316C194.536 141.032 193.9 142.256 192.712 142.256C191.512 142.256 190.888 141.032 190.888 139.316C190.888 137.6 191.512 136.376 192.712 136.376ZM199.951 137.612C199.951 138.308 199.351 138.92 198.583 139.76L196.207 142.376V143H201.019V142.16H197.503L199.375 140.108C200.119 139.268 200.863 138.536 200.863 137.6C200.863 136.34 200.023 135.524 198.619 135.524C197.263 135.524 196.351 136.472 196.207 137.84H197.179C197.251 136.988 197.731 136.364 198.619 136.364C199.435 136.364 199.951 136.856 199.951 137.612ZM204.572 143.108C206.216 143.108 207.32 141.56 207.32 139.316C207.32 137.072 206.216 135.524 204.572 135.524C202.928 135.524 201.824 137.072 201.824 139.316C201.824 141.56 202.928 143.108 204.572 143.108ZM204.572 136.376C205.76 136.376 206.396 137.6 206.396 139.316C206.396 141.032 205.76 142.256 204.572 142.256C203.372 142.256 202.748 141.032 202.748 139.316C202.748 137.6 203.372 136.376 204.572 136.376Z" fill="black"/>
<defs>
<linearGradient id="paint0_linear" x1="18" y1="53.5" x2="18" y2="119" gradientUnits="userSpaceOnUse">
<stop stop-color="#3377B2"/>
<stop offset="1" stop-color="#55B197"/>
</linearGradient>
</defs>
</svg>
