<svg width="122" height="22" viewBox="0 0 122 22" fill="none" xmlns="http://www.w3.org/2000/svg">
<g filter="url(#filter0_d)">
<path d="M4.46 9.8C4.92 11.96 6.74 13.18 9.18 13.18C11.62 13.18 13.42 11.84 13.42 9.62C13.42 7.88 12.32 6.82 10.36 6.32L8.26 5.78C6.98 5.44 6.3 4.94 6.3 3.9C6.3 2.64 7.38 1.88 8.84 1.88C10.46 1.88 11.38 2.68 11.76 3.78H13.34C12.88 1.84 11.38 0.539999 8.84 0.539999C6.52 0.539999 4.8 1.94 4.8 4.02C4.8 5.88 6.04 6.74 7.74 7.18L9.94 7.76C11.36 8.12 11.9 8.74 11.9 9.7C11.9 11.06 10.78 11.84 9.18 11.84C7.68 11.84 6.52 11.16 6.06 9.8H4.46ZM22.5958 4.12H21.0758V10.14C20.7558 11.1 19.8958 11.8 18.8558 11.8C17.5158 11.8 16.9158 10.94 16.9158 9.7V4.12H15.3958V9.94C15.3958 11.88 16.4758 13.18 18.4958 13.18C19.6358 13.18 20.5758 12.58 21.0758 11.88V13H22.5958V4.12ZM24.5219 10.56C24.8019 12.2 26.2219 13.18 28.1619 13.18C30.0619 13.18 31.4619 12.18 31.4619 10.5C31.4619 9.26 30.7219 8.42 29.2019 8.02L27.4819 7.6C26.6419 7.36 26.2419 7.08 26.2419 6.48C26.2419 5.62 27.0619 5.2 27.9419 5.2C29.0219 5.2 29.6419 5.66 29.9019 6.46H31.4019C31.0819 4.9 29.9219 3.94 27.9619 3.94C26.1619 3.94 24.7819 4.98 24.7819 6.56C24.7819 7.94 25.6619 8.58 26.9219 8.9L28.6819 9.36C29.6019 9.6 30.0019 9.98 30.0019 10.6C30.0019 11.5 29.2419 11.92 28.1819 11.92C27.1419 11.92 26.3619 11.48 26.0819 10.56H24.5219ZM40.0222 13V7.08C40.0222 5.14 38.7622 3.94 36.6422 3.94C34.9422 3.94 33.6222 4.96 33.3222 6.46H34.8022C35.0822 5.64 35.6822 5.24 36.6222 5.24C37.9022 5.24 38.5822 6.04 38.5822 7.14V8.26C38.2022 7.92 37.2622 7.54 36.3422 7.54C34.4422 7.54 32.9422 8.66 32.9422 10.32C32.9422 12.08 34.4422 13.16 36.2422 13.16C37.3022 13.16 38.2422 12.7 38.5822 12.34V13H40.0222ZM38.5822 10.8C38.3222 11.46 37.4222 11.9 36.5022 11.9C35.4222 11.9 34.3822 11.4 34.3822 10.32C34.3822 9.26 35.4222 8.78 36.5022 8.78C37.4222 8.78 38.3222 9.22 38.5822 9.88V10.8ZM42.5861 13H44.0861V6.98C44.4061 6.02 45.3061 5.32 46.3461 5.32C47.6861 5.32 48.3061 6.18 48.3061 7.42V13H49.8261V7.18C49.8261 5.24 48.7261 3.94 46.7061 3.94C45.5661 3.94 44.6061 4.54 44.0861 5.24V4.12H42.5861V13ZM63.2053 6.64C64.1653 6.34 65.0053 5.44 65.0053 3.98C65.0053 1.86 63.4853 0.72 60.9453 0.72H56.9053V13H61.3453C63.8653 13 65.4253 11.78 65.4253 9.54C65.4253 8.16 64.5253 6.98 63.2053 6.64ZM58.4453 6.06V2.1H60.9453C62.5853 2.1 63.4853 2.72 63.4853 4.06C63.4853 5.4 62.5853 6.06 60.9453 6.06H58.4453ZM58.4453 7.38H61.3453C63.0053 7.38 63.8853 8.2 63.8853 9.5C63.8853 10.78 63.0053 11.62 61.3453 11.62H58.4453V7.38ZM74.0847 13V7.08C74.0847 5.14 72.8247 3.94 70.7047 3.94C69.0047 3.94 67.6847 4.96 67.3847 6.46H68.8647C69.1447 5.64 69.7447 5.24 70.6847 5.24C71.9647 5.24 72.6447 6.04 72.6447 7.14V8.26C72.2647 7.92 71.3247 7.54 70.4047 7.54C68.5047 7.54 67.0047 8.66 67.0047 10.32C67.0047 12.08 68.5047 13.16 70.3047 13.16C71.3647 13.16 72.3047 12.7 72.6447 12.34V13H74.0847ZM72.6447 10.8C72.3847 11.46 71.4847 11.9 70.5647 11.9C69.4847 11.9 68.4447 11.4 68.4447 10.32C68.4447 9.26 69.4847 8.78 70.5647 8.78C71.4847 8.78 72.3847 9.22 72.6447 9.88V10.8ZM77.01 10.76C77.01 12.4 78.01 13.18 79.45 13.18C79.99 13.18 80.51 13.06 80.85 12.88V11.48C80.55 11.68 80.11 11.84 79.69 11.84C78.93 11.84 78.51 11.46 78.51 10.6V5.4H80.65V4.12H78.51V1.78H77.01V4.12H75.57V5.4H77.01V10.76ZM88.44 10.34C88.2 11.34 87.38 11.9 86.28 11.9C84.78 11.9 83.72 10.74 83.7 8.84H89.98V8.3C89.98 5.72 88.68 3.94 86.24 3.94C83.82 3.94 82.2 5.92 82.2 8.58C82.2 11.32 83.86 13.18 86.28 13.18C88.28 13.18 89.54 12.02 89.86 10.34H88.44ZM86.26 5.22C87.74 5.22 88.44 6.38 88.46 7.7H83.74C83.96 6.14 84.92 5.22 86.26 5.22ZM91.2797 10.56C91.5597 12.2 92.9797 13.18 94.9197 13.18C96.8197 13.18 98.2197 12.18 98.2197 10.5C98.2197 9.26 97.4797 8.42 95.9597 8.02L94.2397 7.6C93.3997 7.36 92.9997 7.08 92.9997 6.48C92.9997 5.62 93.8197 5.2 94.6997 5.2C95.7797 5.2 96.3997 5.66 96.6597 6.46H98.1597C97.8397 4.9 96.6797 3.94 94.7197 3.94C92.9197 3.94 91.5397 4.98 91.5397 6.56C91.5397 7.94 92.4197 8.58 93.6797 8.9L95.4397 9.36C96.3597 9.6 96.7597 9.98 96.7597 10.6C96.7597 11.5 95.9997 11.92 94.9397 11.92C93.8997 11.92 93.1197 11.48 92.8397 10.56H91.2797ZM107.821 8.56C107.821 5.84 106.161 3.94 103.741 3.94C101.301 3.94 99.6609 5.84 99.6609 8.56C99.6609 11.28 101.301 13.18 103.741 13.18C106.161 13.18 107.821 11.28 107.821 8.56ZM106.301 8.56C106.301 10.5 105.341 11.86 103.741 11.86C102.141 11.86 101.181 10.5 101.181 8.56C101.181 6.62 102.141 5.26 103.741 5.26C105.341 5.26 106.301 6.62 106.301 8.56ZM109.852 13H111.352V6.98C111.672 6.02 112.572 5.32 113.612 5.32C114.952 5.32 115.572 6.18 115.572 7.42V13H117.092V7.18C117.092 5.24 115.992 3.94 113.972 3.94C112.832 3.94 111.872 4.54 111.352 5.24V4.12H109.852V13Z" fill="#22333B"/>
</g>
<defs>
<filter id="filter0_d" x="0.459961" y="0.540039" width="120.632" height="20.64" filterUnits="userSpaceOnUse" color-interpolation-filters="sRGB">
<feFlood flood-opacity="0" result="BackgroundImageFix"/>
<feColorMatrix in="SourceAlpha" type="matrix" values="0 0 0 0 0 0 0 0 0 0 0 0 0 0 0 0 0 0 127 0"/>
<feOffset dy="4"/>
<feGaussianBlur stdDeviation="2"/>
<feColorMatrix type="matrix" values="0 0 0 0 0 0 0 0 0 0 0 0 0 0 0 0 0 0 0.25 0"/>
<feBlend mode="normal" in2="BackgroundImageFix" result="effect1_dropShadow"/>
<feBlend mode="normal" in="SourceGraphic" in2="effect1_dropShadow" result="shape"/>
</filter>
</defs>
</svg>
