<svg width="20" height="22" viewBox="0 0 20 22" fill="none" xmlns="http://www.w3.org/2000/svg">
<path d="M1.66052 3.16612H5.82171V2.41982C5.82171 1.08553 6.80855 0 8.02154 0H11.9771C13.1901 0 14.177 1.08553 14.177 2.41982V3.16612H18.3382C18.6465 3.16612 18.8932 3.4375 18.8932 3.77673C18.8932 4.11595 18.6465 4.38734 18.3382 4.38734H17.3349V18.7344C17.3349 20.5345 16.0026 22 14.3661 22H5.63256C3.99605 22 2.66381 20.5345 2.66381 18.7344V4.38734H1.66052C1.35213 4.38734 1.10542 4.11595 1.10542 3.77673C1.10542 3.4375 1.35213 3.16612 1.66052 3.16612ZM13.0668 2.41982C13.0668 1.75946 12.5775 1.22122 11.9771 1.22122H8.02154C7.42121 1.22122 6.9319 1.75946 6.9319 2.41982V3.16612H13.0668V2.41982ZM3.77401 18.7344C3.77401 19.8606 4.60871 20.7788 5.63256 20.7788H14.3661C15.39 20.7788 16.2247 19.8606 16.2247 18.7344V4.38734H3.7699V18.7344H3.77401Z" fill="#8CD0EE"/>
<path d="M9.99928 18.5898C9.6909 18.5898 9.44419 18.3184 9.44419 17.9792V7.18727C9.44419 6.84804 9.6909 6.57666 9.99928 6.57666C10.3077 6.57666 10.5544 6.84804 10.5544 7.18727V17.9747C10.5544 18.3139 10.3077 18.5898 9.99928 18.5898Z" fill="#8CD0EE"/>
<path d="M13.6218 17.9159C13.3135 17.9159 13.0667 17.6445 13.0667 17.3053V7.8567C13.0667 7.51748 13.3135 7.24609 13.6218 7.24609C13.9302 7.24609 14.1769 7.51748 14.1769 7.8567V17.3053C14.1769 17.6445 13.9261 17.9159 13.6218 17.9159Z" fill="#8CD0EE"/>
<path d="M6.37673 17.9159C6.06834 17.9159 5.82163 17.6445 5.82163 17.3053V7.8567C5.82163 7.51748 6.06834 7.24609 6.37673 7.24609C6.68511 7.24609 6.93182 7.51748 6.93182 7.8567V17.3053C6.93182 17.6445 6.68511 17.9159 6.37673 17.9159Z" fill="#8CD0EE"/>
</svg>
